# xmcd
#
# Track frame offsets: 
#        150
#        17514
#        34480
#        51063
#        75544
#        88859
#        102902
#        123090
#        143637
#        162647
#        183273
#
# Disc length: 2706 seconds
#
# Revision: 4
# Processed by: cddbd v1.5.2PL0 Copyright (c) Steve Scherf et al.
# Submitted via: ExactAudioCopy v1.3
#
DISCID=870a900b
DTITLE=Lynyrd Skynyrd - Last of a dyin' breed
DYEAR=2012
DGENRE=Southern Rock
TTITLE0=Last of a dyin' breed
TTITLE1=One day at a time
TTITLE2=Homegrown
TTITLE3=Ready to fly
TTITLE4=Mississippi blood
TTITLE5=Good teacher
TTITLE6=Something to live for
TTITLE7=Life's twisted
TTITLE8=Nothing comes easy
TTITLE9=Honey hole
TTITLE10=Start livin' life again
EXTD=
EXTT0=
EXTT1=
EXTT2=
EXTT3=
EXTT4=
EXTT5=
EXTT6=
EXTT7=
EXTT8=
EXTT9=
EXTT10=
PLAYORDER=
